<?xml version="1.0" encoding="UTF-8"?>
<svg id="Layer_1" data-name="Layer 1" xmlns="http://www.w3.org/2000/svg" viewBox="0 0 380 157">
  <defs>
    <style>
      .cls-1, .cls-2 {
        fill: #0482aa;
      }

      .cls-3 {
        letter-spacing: .03em;
      }

      .cls-3, .cls-4, .cls-5 {
        font-family: FiraSans-Regular, 'Fira Sans';
        font-size: 19.69px;
      }

      .cls-4 {
        letter-spacing: .05em;
      }

      .cls-6 {
        letter-spacing: .03em;
      }

      .cls-6, .cls-7, .cls-8, .cls-9 {
        font-family: FiraSans-Book, 'Fira Sans';
        font-size: 18.75px;
      }

      .cls-2 {
        stroke-width: 0px;
      }

      .cls-7 {
        letter-spacing: 0em;
      }

      .cls-5 {
        letter-spacing: .04em;
      }

      .cls-8 {
        letter-spacing: .05em;
      }

      .cls-9 {
        letter-spacing: .04em;
      }
    </style>
  </defs>
  <g>
    <g>
      <path class="cls-2" d="M158.25,76.29c0,10.86-8.79,13.88-20.75,13.88h-15.32v-47.61h13.47c12.78,0,20.61,3.23,20.61,12.16,0,6.05-4.33,9.21-8.73,10.24,5.29,1.03,10.72,3.64,10.72,11.34ZM133.45,61.58h4.19c4.67,0,7.15-1.79,7.15-5.77s-2.61-5.29-8.04-5.29h-3.3v11.06ZM146.64,75.67c0-4.81-3.37-6.6-8.24-6.6h-4.95v12.92h4.12c5.29,0,9.07-1.1,9.07-6.32Z"/>
      <path class="cls-2" d="M174.62,82.74c.55,0,1.31-.14,1.79-.34l2.13,7.69c-1.86.76-4.47,1.24-7.01,1.24-6.05,0-9.62-3.57-9.62-10.31v-41.84l10.86-1.17v41.91c0,2.06.69,2.82,1.85,2.82Z"/>
      <path class="cls-2" d="M203.06,90.16l-.48-4.6c-2.68,3.85-6.25,5.77-11.06,5.77-6.8,0-10.17-4.4-10.17-11.47v-26.18h10.86v24.8c0,3.71,1.24,4.81,3.5,4.81s4.33-1.51,5.91-4.26v-25.35h10.86v36.48h-9.41Z"/>
      <path class="cls-2" d="M250.54,75.12h-22.6c.76,6.53,3.85,8.31,8.31,8.31,2.95,0,5.57-1.03,8.73-3.23l4.47,6.05c-3.64,2.89-8.31,5.08-14.22,5.08-12.16,0-18.34-7.83-18.34-19.24s5.98-19.58,17.04-19.58c10.44,0,16.83,6.87,16.83,18.69,0,1.17-.07,2.82-.21,3.92ZM240.09,68.11c-.07-4.95-1.58-8.38-5.91-8.38-3.64,0-5.77,2.34-6.25,8.86h12.16v-.48Z"/>
      <path class="cls-2" d="M268.68,82.74c.55,0,1.31-.14,1.79-.34l2.13,7.69c-1.86.76-4.47,1.24-7.01,1.24-6.05,0-9.62-3.57-9.62-10.31v-41.84l10.86-1.17v41.91c0,2.06.69,2.82,1.85,2.82Z"/>
      <path class="cls-2" d="M289.7,40.63c0,3.5-2.68,6.18-6.46,6.18s-6.39-2.68-6.39-6.18,2.61-6.18,6.39-6.18,6.46,2.68,6.46,6.18ZM277.88,90.16v-36.48h10.85v36.48h-10.85Z"/>
      <path class="cls-2" d="M326.3,63.51v26.66h-10.86v-24.8c0-3.85-1.31-4.88-3.44-4.88-2.4,0-4.4,1.72-6.32,4.74v24.94h-10.85v-36.48h9.48l.76,4.33c3.09-3.64,6.6-5.5,11.13-5.5,6.32,0,10.1,4.05,10.1,10.99Z"/>
      <path class="cls-2" d="M364.34,75.12h-22.6c.76,6.53,3.85,8.31,8.31,8.31,2.95,0,5.57-1.03,8.73-3.23l4.47,6.05c-3.64,2.89-8.31,5.08-14.22,5.08-12.16,0-18.34-7.83-18.34-19.24s5.98-19.58,17.04-19.58c10.44,0,16.83,6.87,16.83,18.69,0,1.17-.07,2.82-.21,3.92ZM353.9,68.11c-.07-4.95-1.58-8.38-5.91-8.38-3.64,0-5.77,2.34-6.25,8.86h12.16v-.48Z"/>
    </g>
    <g>
      <path class="cls-2" d="M44.06,60.7c.12,3.93,2.69,7.51,6.66,8.67,4.94,1.45,10.12-1.39,11.57-6.33,1.45-4.94-1.38-10.12-6.33-11.57-3.97-1.16-8.07.47-10.28,3.71.1-4.11-2.11-7.98-5.73-9.97,4.11.09,7.94-2.53,9.15-6.67,1.45-4.94-1.39-10.12-6.33-11.57-4.94-1.45-10.12,1.39-11.57,6.33-1.21,4.14.6,8.41,4.11,10.55-5.08-.34-9.9,2.87-11.39,7.96-1.73,5.89,1.65,12.06,7.54,13.79,4.93,1.44,10.05-.7,12.6-4.89Z"/>
      <path class="cls-2" d="M31.09,66.85c-3.91-1.14-8,1.1-9.15,5-1.14,3.91,1.1,8,5,9.15,3.91,1.15,8-1.09,9.15-5,1.14-3.91-1.09-8-5-9.15Z"/>
      <path class="cls-2" d="M28.08,79.23c-3-.88-6.14.84-7.02,3.84-.88,3,.84,6.14,3.84,7.02,3,.88,6.14-.84,7.02-3.84.88-3-.84-6.14-3.84-7.02Z"/>
      <path class="cls-2" d="M88.39,33.95c-3-.88-6.14.84-7.02,3.84-.88,3,.84,6.14,3.84,7.02,3,.88,6.14-.84,7.02-3.84.88-3-.84-6.14-3.84-7.02Z"/>
      <path class="cls-2" d="M22.7,97.29c-3-.88-6.14.84-7.02,3.84-.88,3,.84,6.14,3.84,7.02,3,.88,6.14-.84,7.02-3.84.88-3-.84-6.14-3.84-7.02Z"/>
      <path class="cls-2" d="M57.11,47.57c3.4,1,6.97-.95,7.97-4.36,1-3.4-.95-6.97-4.36-7.97-3.4-1-6.97.95-7.97,4.36-1,3.4.95,6.97,4.36,7.97Z"/>
      <path class="cls-2" d="M45.41,87.51c4.47,1.31,9.15-1.25,10.46-5.72,1.31-4.47-1.25-9.15-5.72-10.46-4.47-1.31-9.15,1.25-10.46,5.72-1.31,4.47,1.25,9.15,5.72,10.46Z"/>
      <path class="cls-2" d="M74.72,56.96c-4.94-1.45-10.12,1.39-11.57,6.33-1.45,4.94,1.38,10.12,6.33,11.57,4.94,1.45,10.12-1.39,11.57-6.33,1.45-4.94-1.39-10.12-6.33-11.57Z"/>
      <path class="cls-2" d="M78.27,88.36c-1.14,3.88,1.09,7.95,4.97,9.08,3.88,1.14,7.95-1.09,9.08-4.97,1.14-3.88-1.09-7.95-4.97-9.08-3.88-1.14-7.95,1.09-9.08,4.97Z"/>
      <path class="cls-2" d="M88.67,112.04c1.45-4.94-1.39-10.12-6.33-11.57-4-1.17-8.11.49-10.32,3.77.12-4.14-2.1-8.04-5.76-10.03,4.14.12,8-2.51,9.22-6.67,1.45-4.94-1.39-10.12-6.33-11.57-4.94-1.45-10.12,1.39-11.57,6.33-1.22,4.16.62,8.46,4.17,10.59-4.15-.3-8.13,1.79-10.26,5.34-.09-3.95-2.66-7.57-6.66-8.74-4.94-1.45-10.12,1.39-11.57,6.33-1.45,4.94,1.38,10.12,6.33,11.57,4,1.17,8.11-.49,10.32-3.77-.14,4.91,3.01,9.49,7.95,10.94,4.93,1.44,10.06-.71,12.59-4.92.09,3.95,2.66,7.57,6.66,8.74,4.94,1.45,10.12-1.39,11.57-6.33Z"/>
    </g>
    <text class="cls-1" transform="translate(122.18 120.56)"><tspan class="cls-9" x="0" y="0">E</tspan><tspan class="cls-6" x="10.69" y="0">S</tspan><tspan class="cls-7" x="21.42" y="0">T</tspan><tspan class="cls-8" x="31.02" y="0">-</tspan><tspan class="cls-4" x="39.5" y="0">1</tspan><tspan class="cls-3" x="49.01" y="0">8</tspan><tspan class="cls-5" x="60.51" y="0">9</tspan><tspan class="cls-4" x="71.54" y="0">3</tspan></text>
  </g>
  <path class="cls-2" d="M192.88,135.57h-72.66c-.57,0-1.04-.16-1.04-.35s.46-.35,1.04-.35h72.66c.57,0,1.04.16,1.04.35s-.46.35-1.04.35Z"/>
</svg>