<?xml version="1.0" encoding="UTF-8"?>
<svg id="Layer_1" data-name="Layer 1" xmlns="http://www.w3.org/2000/svg" viewBox="0 0 213 187">
  <defs>
    <style>
      .cls-1 {
        fill: #0081a9;
      }

      .cls-1, .cls-2 {
        stroke-width: 0px;
      }

      .cls-2 {
        fill: #fcfafb;
      }
    </style>
  </defs>
  <circle class="cls-2" cx="115.14" cy="88.35" r="59.35"/>
  <g>
    <path class="cls-1" d="M109.12,116.7s1.35.64,4.72-.08c3.43-.72,5.17-3.6,5.17-3.6.08-.11.06,3.94-.52,6.07-.77,2.8-2.02,4.34-2.02,4.34,0,0-.89.75-3.15.82-2.35.08-2.78-.26-2.78-.26,0,0-.7-2.87-.88-3.64-.34-1.54-.54-3.66-.54-3.66"/>
    <path class="cls-1" d="M110.16,123.97s-2.02-6.14-1.27-9.81c.75-3.67,7.19-13.49,7.19-13.49l-7.12-6.07s-5.24,9.21-5.84,11.24c-.6,2.02-2.77,6.44-.15,11.91,2.62,5.47,7.19,6.22,7.19,6.22"/>
    <path class="cls-1" d="M114.04,86.16s2.5,1.6,4.34,3.3c1.3,1.2,2.75,3.25,2.75,3.25,0,0,6.34-9.69,8.99-19.38,1.33-4.86,2.3-9.11,1.4-13.28-2.2-10.19-6.64-12.84-6.64-12.84,0,0,1.1,8.54-.8,16.23-1.9,7.69-4.75,13.83-7.09,17.73-1.7,2.82-2.95,4.99-2.95,4.99"/>
    <path class="cls-1" d="M81.52,86.61s4.6-1.75,9.14-.65c4.55,1.1,10.64,2.91,17.71,8.94,9.74,8.32,11.16,9.89,12.36,18.36.62,4.4-2.4,9.16-2.4,9.16,0,0,5.69-3.4,6.59-9.19.71-4.56.8-12.74-8.89-22.02-9.69-9.29-21.53-11.96-28.42-9.87-4.93,1.5-6.09,5.27-6.09,5.27"/>
    <path class="cls-1" d="M101.81,120.54c-.08,0-.16-.01-.23-.05-12.99-5.46-21.52-18.1-21.74-32.18,0-.33.26-.6.59-.61.33,0,.6.26.61.59.21,13.61,8.46,25.81,21.01,31.09.31.13.45.48.32.79-.1.23-.32.37-.55.37"/>
    <path class="cls-1" d="M123.05,122.41c-.27,0-.52-.19-.58-.47-.07-.32.13-.65.45-.72,7.47-1.69,14.25-5.91,19.1-11.9,4.92-6.07,7.63-13.73,7.63-21.57,0-5.93-1.54-11.78-4.45-16.9-2.82-4.97-6.88-9.2-11.73-12.23-.28-.18-.37-.54-.19-.83.17-.28.54-.37.83-.19,5.02,3.13,9.22,7.51,12.14,12.65,3.01,5.31,4.6,11.36,4.6,17.49,0,8.11-2.8,16.03-7.89,22.32-5.02,6.2-12.04,10.57-19.77,12.31-.04.01-.09.01-.13.01"/>
    <path class="cls-1" d="M80.61,84.79s-.04,0-.06,0c-.33-.03-.57-.33-.54-.66.88-8.7,4.95-16.74,11.45-22.65,6.54-5.95,15.02-9.22,23.87-9.22,2.6,0,5.19.28,7.71.84.32.07.53.39.46.72-.07.32-.39.53-.71.45-2.43-.54-4.94-.81-7.45-.81-8.55,0-16.74,3.16-23.07,8.91-6.28,5.71-10.21,13.48-11.06,21.89-.03.31-.29.54-.59.54"/>
    <path class="cls-1" d="M73,84.87c.53.05.66.09.9.23.3.2.49.61.45,1-.04.4-.31.76-.64.9-.27.1-.39.11-.93.05l-6.64-.64c-.67-.06-.84-.12-1.08-.34-.32-.29-.43-.63-.38-1.14l.03-.27.19-1.95c.19-2.02,1.48-3.22,3.29-3.05.77.08,1.45.4,1.86.93.32.41.45.76.54,1.55l2.24-1.66c.5-.37.72-.47,1.04-.43.59.06,1.03.61.97,1.21-.04.39-.22.61-.79.98l-3.61,2.37,2.56.25ZM69.03,83.11c.07-.69-.33-1.22-.96-1.28-.66-.06-1.21.42-1.28,1.1l-.13,1.32,2.23.22.13-1.36Z"/>
    <path class="cls-1" d="M70.09,75.32l.49-1.77c.13-.46.17-.57.34-.76.22-.24.62-.34.95-.25.35.09.64.39.7.7.05.25.03.37-.09.83l-.49,1.77,1.79.49.55-1.98c.13-.46.17-.56.34-.76.21-.24.61-.34.95-.25.35.1.64.39.7.7.05.25.04.35-.09.82l-.71,2.57c-.25,1.12-.87,1.48-1.96,1.11l-6.17-1.7c-.64-.18-.81-.27-1.01-.52-.26-.34-.31-.7-.18-1.18l.07-.26.71-2.57c.13-.46.17-.56.34-.76.22-.24.62-.34.95-.25.35.1.64.39.7.7.05.25.04.35-.09.83l-.55,1.98,1.76.49Z"/>
    <path class="cls-1" d="M75.97,66.02c-.21.43-.28.52-.48.68-.26.19-.67.21-.99.05-.31-.16-.54-.5-.54-.82,0-.26.03-.35.25-.79l.96-1.92c.37-.75.9-.87,1.77-.43,1.1.55,1.94,1.46,2.34,2.56.42,1.13.34,2.23-.25,3.4-1.25,2.51-3.95,3.35-6.59,2.03-2.66-1.33-3.64-4.1-2.36-6.68.83-1.66,2.47-2.79,3.38-2.33.46.23.67.85.44,1.31-.13.27-.22.34-1.16.92-.33.21-.73.65-.94,1.07-.66,1.31.01,2.77,1.65,3.59,1.67.84,3.18.49,3.86-.87.31-.62.32-1.19.05-1.74-.19-.37-.39-.6-.91-.98l-.48.95Z"/>
    <path class="cls-1" d="M74.83,59.12c-.43-.31-.52-.41-.66-.65-.16-.32-.12-.77.12-1.1.23-.31.65-.51,1-.45.28.05.39.1.83.42l5.65,4.05c.43.31.52.41.66.65.16.32.12.77-.11,1.09-.23.33-.65.51-1.01.47-.28-.05-.39-.1-.83-.42l-5.65-4.05Z"/>
    <path class="cls-1" d="M81.71,50.75c.42.4.44,1.02.07,1.41q-.15.16-.67.41c-.3.15-.6.36-.81.58-.45.47-.52,1.03-.19,1.35.16.15.39.21.6.16q.31-.06,1.12-.56c1.87-1.14,3.15-1.17,4.28-.1.61.57.98,1.35,1.03,2.11.06.89-.37,1.87-1.21,2.76-1.32,1.39-2.74,1.9-3.43,1.25-.42-.4-.46-1.03-.11-1.41q.19-.2,1.2-.68c.32-.15.67-.39.9-.63.5-.53.54-1.15.1-1.57-.22-.21-.48-.28-.76-.2-.32.07-.52.17-1.47.71-1.01.59-1.47.76-2.04.77-.56.03-1.16-.24-1.69-.75-1.29-1.23-1.2-3.18.21-4.68,1.06-1.12,2.24-1.5,2.84-.93"/>
    <path class="cls-1" d="M91.36,52.08c.32.43.37.55.43.83.05.36-.12.77-.44,1-.32.24-.77.29-1.1.14-.26-.13-.34-.22-.66-.65l-3.76-5.06-.88.65c-.38.28-.48.34-.74.39-.32.06-.69-.11-.91-.4-.21-.28-.26-.69-.12-.97.12-.23.19-.3.58-.59l3.49-2.59c.38-.28.48-.34.74-.39.32-.06.69.11.9.39.21.29.27.7.12.98-.12.23-.19.3-.58.59l-.84.63,3.76,5.06Z"/>
    <path class="cls-1" d="M94.05,45.23l1.64-.84c.42-.22.53-.26.79-.26.32,0,.67.22.82.53.16.32.15.73-.04.99-.15.21-.25.27-.67.49l-1.64.84.85,1.65,1.83-.94c.42-.22.53-.26.79-.26.32,0,.66.23.82.53.16.32.15.73-.04.99-.15.21-.24.27-.67.49l-2.37,1.21c-1,.58-1.68.36-2.15-.69l-2.92-5.7c-.3-.59-.35-.78-.3-1.09.07-.43.3-.7.75-.93l.24-.13,2.37-1.21c.42-.22.53-.26.79-.26.32,0,.67.22.82.53.16.32.15.73-.04.99-.15.21-.23.27-.67.49l-1.83.94.83,1.63Z"/>
    <path class="cls-1" d="M102.47,46.51c.15.51.16.64.12.92-.08.35-.38.68-.76.79-.39.12-.82,0-1.08-.25-.2-.21-.24-.32-.4-.84l-1.88-6.4c-.19-.65-.2-.83-.09-1.13.15-.4.43-.64.91-.78l.26-.08,1.87-.55c1.95-.57,3.54.17,4.06,1.91.22.75.17,1.5-.17,2.07-.26.45-.54.7-1.24,1.09l2.38,1.46c.53.32.7.5.79.8.17.57-.18,1.18-.76,1.35-.37.11-.65.03-1.2-.37l-3.54-2.47.73,2.47ZM102.62,42.17c.66-.19,1.01-.76.83-1.37-.19-.63-.84-.97-1.5-.77l-1.27.37.63,2.15,1.31-.39Z"/>
    <path class="cls-1" d="M110.3,40.28l1.83-.19c.47-.05.59-.05.83.04.3.12.54.45.57.79.04.36-.13.74-.4.91-.22.14-.33.16-.8.21l-1.83.19.19,1.85,2.05-.21c.47-.05.59-.05.83.05.3.11.54.45.57.79.04.36-.13.74-.4.91-.22.14-.31.16-.8.21l-2.65.27c-1.14.17-1.69-.27-1.75-1.42l-.65-6.37c-.07-.66-.04-.85.12-1.12.22-.37.54-.55,1.04-.6l.27-.03,2.65-.27c.47-.05.59-.05.83.04.3.12.54.45.57.8.04.36-.13.74-.4.91-.22.14-.32.16-.8.21l-2.05.21.19,1.82Z"/>
    <path class="cls-1" d="M116.19,37.65c.06-.67.12-.84.34-1.08.29-.32.63-.43,1.13-.38l.27.03,1.79.17c1.22.12,2.28.52,2.98,1.15,1.04.92,1.54,2.44,1.38,4.13-.27,2.86-2.27,4.6-4.94,4.3l-2.13-.23c-1.15-.06-1.59-.61-1.42-1.74l.6-6.34ZM118.89,44.02c1.68.16,2.69-.77,2.87-2.63.09-1-.12-1.79-.66-2.36-.43-.46-.99-.69-1.92-.77l-.83-.08-.55,5.74,1.09.1Z"/>
    <path class="cls-1" d="M138.17,43c-.23.53-.73.75-1.21.54-.2-.09-.31-.18-.65-.53-.34-.35-.58-.52-.96-.68-1.39-.6-2.66.07-3.41,1.8-.74,1.7-.35,3.08,1.05,3.68q.5.22,1.58.2c.19,0,.36.03.49.09.45.19.64.78.42,1.28-.37.86-1.76.99-3.31.32-2.65-1.15-3.6-3.75-2.38-6.56,1.17-2.71,3.78-3.82,6.36-2.7,1.57.68,2.38,1.72,2.01,2.56"/>
    <path class="cls-1" d="M139.87,49.17l-1.53,2.11c-.31.43-.41.52-.66.66-.32.16-.77.11-1.09-.12-.32-.23-.5-.65-.46-1.01.05-.28.1-.39.43-.83l4.08-5.62c.31-.43.41-.52.66-.66.33-.16.77-.11,1.1.12.31.23.49.64.45,1-.05.29-.1.39-.42.83l-1.4,1.92,3.31,2.4,1.39-1.92c.31-.43.41-.52.66-.66.33-.15.77-.11,1.1.12.31.23.49.64.45,1-.05.28-.1.39-.42.83l-4.08,5.62c-.31.43-.41.52-.66.66-.32.16-.77.11-1.09-.12-.32-.24-.5-.65-.46-1.01.05-.28.1-.39.43-.83l1.53-2.11-3.31-2.4Z"/>
    <path class="cls-1" d="M146.19,57.16l-.78.38c-.78.38-1.24.36-1.62-.07-.4-.45-.37-1.16.06-1.55.18-.16.25-.2.7-.36l6.83-2.69c.77-.3,1.49-.16,1.99.41.5.57.55,1.3.16,2.03l-3.52,6.44c-.22.43-.28.49-.45.65-.43.38-1.13.33-1.54-.14-.38-.43-.34-.87.13-1.61l.47-.72-2.44-2.76ZM151.64,54.84l-3.51,1.54,1.54,1.75,1.97-3.29Z"/>
    <path class="cls-1" d="M151.56,64.99c-.46.26-.59.3-.87.33-.36,0-.75-.22-.94-.55-.2-.35-.19-.8,0-1.11.16-.24.25-.31.73-.58l5.79-3.32c.58-.34.76-.39,1.07-.35.43.05.72.27.97.71l.14.24.97,1.7c1.01,1.76.66,3.49-.92,4.39-.67.39-1.41.51-2.06.32-.5-.14-.81-.37-1.34-.95l-.87,2.65c-.19.59-.32.8-.6.96-.51.29-1.19.1-1.49-.43-.19-.34-.18-.63.08-1.25l1.58-4.02-2.23,1.28ZM155.81,64.13c.34.6.97.8,1.52.49.57-.33.75-1.04.4-1.64l-.66-1.15-1.95,1.12.68,1.19Z"/>
    <path class="cls-1" d="M160.88,67.98c.49-.2.62-.22.91-.21.36.04.71.32.87.69.14.36.08.82-.16,1.09-.19.22-.29.27-.8.48l-6.45,2.58c-.49.2-.62.22-.91.21-.36-.04-.71-.32-.86-.68-.15-.37-.08-.82.15-1.1.19-.22.3-.27.8-.48l6.45-2.58Z"/>
    <path class="cls-1" d="M156.85,77.92c-.52.13-.65.14-.93.09-.35-.09-.67-.4-.77-.78-.1-.39.02-.82.28-1.07.22-.19.33-.23.85-.37l6.1-1.59-.27-1.06c-.12-.46-.14-.57-.08-.83.07-.31.36-.6.71-.69.33-.09.73.02.94.26.17.19.21.29.33.76l1.1,4.2c.12.46.13.57.08.83-.07.31-.36.6-.7.69-.35.09-.75-.01-.96-.26-.17-.19-.21-.29-.33-.76l-.26-1.02-6.1,1.59Z"/>
    <path class="cls-1" d="M157.96,85.87c-.53.04-.66.02-.93-.08-.33-.15-.59-.52-.62-.91-.03-.4.17-.81.48-1,.25-.15.36-.17.91-.21l3.2-.23,2.99-2.54c.41-.35.64-.47.93-.49.59-.04,1.11.42,1.16,1.02.03.45-.11.69-.69,1.15l-2.21,1.81,2.46,1.52c.63.39.81.62.84,1.05.04.59-.42,1.16-.98,1.2-.31.02-.54-.06-1.02-.37l-3.32-2.15-3.2.23Z"/>
    <path class="cls-1" d="M73.38,111.52c-.38.18-.74.09-.89-.23-.12-.26-.07-.5.16-.74-.46-.11-.68-.28-.87-.67-.19-.39-.22-.82-.1-1.25.17-.6.58-1.06,1.23-1.37.59-.28,1.12-.32,1.68-.12.48.17.83.46,1.02.88.18.38.18.66.01,1.11.34-.02.53.08.66.34.14.3.01.65-.29.8l-2.62,1.26ZM73.42,108.33c-.56.27-.79.74-.58,1.19.21.44.73.56,1.28.29.55-.26.77-.74.56-1.18-.21-.44-.72-.56-1.27-.3"/>
    <path class="cls-1" d="M78.38,113.5c0,.23-.1.45-.29.57-.25.15-.57.1-.7-.12-.05-.09-.06-.12-.12-.43-.03-.18-.08-.3-.15-.41-.27-.44-.82-.52-1.33-.21-.53.32-.68.84-.4,1.3.08.12.19.24.34.34.19.12.21.15.27.23.14.24.06.54-.21.7-.14.09-.33.1-.49.03-.33-.13-.68-.45-.92-.83-.3-.5-.37-1.02-.22-1.55.16-.54.46-.91,1.02-1.26.55-.34,1.15-.44,1.66-.29.49.14.94.49,1.21.92.19.31.31.69.33,1"/>
    <path class="cls-1" d="M78.69,114.85c.34-.25.7-.22.92.07.16.21.17.42,0,.69.47.08.73.24,1.01.61.25.33.36.68.34,1.04-.04.42-.2.69-.65,1.03l-1.56,1.17c-.23.17-.29.21-.44.23-.2.04-.42-.06-.55-.23-.13-.17-.16-.41-.07-.59.06-.14.11-.18.35-.36l1.33-1c.37-.28.44-.66.2-.98-.23-.3-.65-.35-.97-.11l-1.37,1.03c-.23.17-.29.21-.44.23-.19.04-.42-.06-.55-.23-.13-.17-.16-.41-.07-.59.06-.14.11-.19.35-.36l2.18-1.64Z"/>
    <path class="cls-1" d="M83.96,120.47c.05.23-.01.46-.17.61-.22.2-.54.21-.71.01-.07-.08-.09-.1-.2-.4-.07-.17-.14-.28-.22-.38-.35-.37-.91-.35-1.35.05-.45.42-.5.96-.14,1.36.1.11.24.2.4.27.21.08.23.1.31.18.19.2.16.52-.06.73-.12.11-.3.16-.47.13-.35-.07-.76-.31-1.06-.64-.39-.43-.57-.93-.52-1.48.05-.56.27-.98.76-1.43.48-.44,1.04-.66,1.57-.61.51.04,1.02.3,1.36.67.25.27.44.61.52.92"/>
    <path class="cls-1" d="M83.36,124.62c-.25.26-.67.28-.93.03-.27-.26-.28-.67-.03-.94s.67-.27.94-.01c.26.25.26.66.02.92"/>
    <path class="cls-1" d="M87.14,128.01c-.81,1-1.91,1.11-2.94.28-.4-.32-.72-.74-.89-1.16-.1-.26-.09-.47.06-.65.18-.22.52-.25.75-.06q.08.06.32.44c.14.23.33.45.48.58.3.24.62.31.88.2.15-.06.27-.15.52-.42-.51.12-.78.06-1.12-.2-.83-.67-.87-1.82-.1-2.77.77-.96,1.98-1.19,2.79-.54.31.25.43.49.47.98.34-.14.53-.14.72.01.27.21.28.57.04.87l-1.97,2.44ZM86.04,124.95c-.38.47-.39,1-.02,1.3.36.29.89.17,1.26-.29.37-.46.38-1.01.01-1.31-.36-.3-.88-.18-1.26.3"/>
    <path class="cls-1" d="M92.88,128.02c.09.51-.04,1.05-.35,1.54-.66,1.02-1.86,1.33-2.82.72-.46-.3-.79-.79-.88-1.33-.09-.52.03-1.04.36-1.56.64-.99,1.86-1.31,2.81-.7.46.29.78.79.87,1.33M90.18,128.04c-.32.5-.27,1.06.11,1.3.4.25.95.07,1.26-.42.31-.48.24-1.06-.15-1.31-.37-.24-.91-.05-1.21.43"/>
    <path class="cls-1" d="M96,129.67c.35-.34.57-.4.85-.26.3.15.43.52.28.81-.06.12-.13.2-.3.35l-2.05,1.8c-.41.36-.62.42-.93.26-.29-.15-.41-.41-.37-.83l.25-2.81c.02-.24.04-.33.1-.45.14-.28.51-.4.8-.25.29.15.36.36.29.84l-.27,1.86,1.34-1.32Z"/>
    <path class="cls-1" d="M97.43,133.64c-.14.34-.54.49-.87.35-.34-.15-.49-.54-.35-.87.14-.34.53-.48.88-.34.33.14.48.53.34.86"/>
    <path class="cls-1" d="M102.37,135.28c-.13.4-.45.59-.79.48-.27-.09-.4-.3-.42-.63-.4.26-.67.3-1.08.16-.41-.14-.74-.41-.97-.8-.31-.54-.36-1.15-.13-1.83.21-.62.55-1.03,1.09-1.29.45-.22.91-.27,1.34-.12.4.13.6.33.81.76.22-.26.43-.32.7-.23.31.11.48.44.37.76l-.92,2.75ZM100.1,133.03c-.2.59-.02,1.09.45,1.24.46.15.91-.14,1.1-.72.19-.57.01-1.07-.46-1.23-.46-.16-.9.13-1.1.7"/>
    <path class="cls-1" d="M107.74,135.53c-.09.41-.24.69-.49.9-.42.36-1.06.5-1.67.37-.61-.13-1.13-.51-1.38-1.01-.14-.29-.17-.61-.08-1.02l.36-1.73c.06-.28.08-.35.18-.47.13-.16.36-.23.57-.19.21.04.39.21.44.4.04.15.04.21-.02.5l-.34,1.58c-.05.25-.03.37.08.54.1.15.25.24.42.28.17.04.35,0,.5-.09.16-.11.23-.22.29-.46l.33-1.58c.06-.28.08-.35.18-.47.12-.16.36-.23.57-.19.21.04.39.21.44.4.04.15.04.21-.02.5l-.36,1.73Z"/>
    <path class="cls-1" d="M109.57,138.16c-.16.29-.26.36-.45.34-.2-.02-.36-.21-.34-.39,0-.09.03-.14.12-.31l2.89-5.31c.15-.28.25-.36.45-.34s.36.21.34.39c-.01.1-.02.13-.12.31l-2.89,5.31Z"/>
    <path class="cls-1" d="M116.05,133.83c.2.12.32.33.32.55-.01.29-.23.53-.49.52-.1,0-.14-.01-.43-.14-.17-.07-.3-.1-.43-.1-.51-.01-.89.4-.9,1-.02.61.33,1.03.88,1.05.14,0,.31-.03.47-.1.21-.09.24-.1.34-.1.27,0,.49.25.48.56,0,.16-.1.33-.24.43-.29.2-.75.33-1.2.31-.58-.02-1.06-.24-1.42-.66-.37-.42-.52-.88-.5-1.54.02-.65.25-1.21.66-1.55.39-.34.93-.52,1.43-.51.36.01.75.11,1.02.27"/>
    <path class="cls-1" d="M118.61,133.78c.38-.28.68-.4,1.06-.43.4-.04.79.08,1.07.3.31.24.45.55.5,1.07l.17,1.94c.03.28.02.35-.04.5-.07.18-.27.32-.48.34-.22.02-.44-.08-.54-.25-.08-.13-.1-.19-.12-.49l-.14-1.6c-.04-.51-.32-.79-.73-.76-.4.04-.66.37-.62.79l.15,1.68c.02.28.02.35-.04.5-.07.18-.27.32-.48.34-.22.02-.44-.08-.54-.25-.08-.13-.1-.19-.12-.49l-.39-4.39c-.03-.28-.02-.36.04-.5.07-.18.27-.32.49-.34.21-.02.43.08.53.25.08.13.1.19.12.48l.11,1.3Z"/>
    <path class="cls-1" d="M126.8,135.73c.08.41-.1.74-.44.81-.28.06-.5-.05-.68-.34-.22.43-.43.59-.86.68-.43.09-.85.02-1.24-.21-.54-.31-.89-.81-1.03-1.52-.13-.64-.04-1.16.29-1.66.28-.42.65-.69,1.1-.78.41-.08.68-.02,1.09.26.06-.34.21-.5.49-.56.32-.07.63.14.7.48l.59,2.84ZM123.71,134.93c.13.61.53.95,1.02.85.48-.1.71-.58.59-1.17-.12-.59-.53-.93-1.01-.83-.48.1-.72.57-.6,1.16"/>
    <path class="cls-1" d="M127.32,132.64c-.12-.39.03-.72.37-.83.26-.08.48,0,.69.23.22-.41.39-.58.65-.67.32-.1.66.08.76.41.08.27,0,.41-.42.7-.55.4-.68.62-.55,1l.44,1.43c.08.27.1.34.07.5-.03.2-.2.37-.4.44-.21.06-.45.01-.58-.13-.11-.11-.14-.17-.22-.45l-.81-2.62Z"/>
    <path class="cls-1" d="M130.87,129.58c.14.36-.04.76-.4.89-.36.14-.76-.04-.89-.41-.13-.36.05-.76.42-.89.35-.13.75.06.88.41M130.32,131.8c-.1-.27-.12-.34-.1-.49.02-.2.18-.39.38-.46.2-.07.44-.03.58.1.12.1.15.16.25.43l.92,2.46c.1.27.12.34.1.49-.02.2-.18.39-.37.46-.21.08-.44.04-.59-.1-.12-.1-.15-.16-.25-.43l-.92-2.46Z"/>
    <path class="cls-1" d="M134.83,132.8c.12.26.14.33.13.48,0,.2-.15.4-.35.48-.2.09-.44.06-.59-.06-.12-.1-.15-.15-.27-.42l-.93-2.09c-.28.14-.47.16-.62.09-.13-.07-.22-.16-.27-.28-.11-.25-.03-.52.21-.67q.07-.05.25-.13l-.25-.56c-.12-.26-.14-.33-.12-.48,0-.2.15-.39.35-.48.19-.09.43-.06.58.06.12.1.15.15.27.42l.25.56.2-.09c.24-.1.31-.13.44-.12.17.01.35.14.43.32.08.18.05.4-.06.53-.09.11-.14.14-.38.25l-.2.09.93,2.09Z"/>
    <path class="cls-1" d="M137.32,128.32c-.06-.45,0-.65.28-.8.29-.16.66-.06.81.21.07.13.08.18.11.46l.51,4.65c.04.45-.02.63-.29.78-.27.15-.64.06-.79-.21-.07-.12-.08-.17-.11-.45l-.12-1.18-2.37-1.86c-.21-.16-.26-.21-.32-.33-.15-.27-.03-.63.25-.79.26-.14.46-.1.82.19l1.46,1.21-.24-1.87Z"/>
    <path class="cls-1" d="M139.12,127.37c-.23-.34-.18-.7.12-.9.22-.15.46-.14.72.02.09-.46.2-.67.43-.83.28-.19.66-.11.85.17.16.24.12.4-.2.79-.42.54-.47.79-.24,1.11l.83,1.24c.16.23.19.3.21.45.03.2-.08.41-.26.53-.18.12-.42.14-.6.04-.14-.07-.18-.12-.34-.36l-1.53-2.28Z"/>
    <path class="cls-1" d="M143.72,126.35c.44.26.81.25,1.18-.04.22-.18.26-.24.56-.87.04-.07.1-.15.17-.21.19-.15.52-.12.68.08.3.38-.09,1.27-.8,1.85-.99.8-2.22.68-2.98-.26-.79-.98-.7-2.25.22-2.99.87-.69,2.1-.53,2.83.37.21.26.17.46-.11.69l-1.73,1.39ZM144.43,124.74c-.19-.14-.28-.19-.41-.23-.23-.06-.48-.01-.67.14-.31.25-.37.59-.18,1.1l1.25-1Z"/>
    <path class="cls-1" d="M150.33,122.09c.91.91.89,2.02-.04,2.95-.37.36-.81.63-1.25.76-.27.07-.47.04-.64-.13-.2-.2-.19-.54.02-.75q.07-.07.48-.27c.24-.11.49-.28.62-.41.27-.27.38-.58.29-.85-.04-.16-.12-.28-.36-.56.06.52-.02.78-.32,1.09-.75.75-1.91.67-2.77-.2-.87-.87-.97-2.09-.23-2.83.28-.28.53-.37,1.02-.36-.11-.35-.08-.54.09-.72.24-.24.6-.22.87.06l2.22,2.22ZM147.17,122.85c.43.43.96.5,1.29.16.33-.33.26-.87-.15-1.29-.41-.42-.97-.49-1.3-.16-.33.33-.27.85.16,1.28"/>
    <path class="cls-1" d="M148.34,116.92c.3.25.33.69.08.98-.25.3-.69.33-.98.08-.29-.25-.32-.69-.06-.98.24-.28.68-.31.96-.07M148.92,119.13c-.22-.18-.26-.24-.32-.38-.08-.18-.03-.42.11-.59.14-.16.37-.24.56-.19.15.03.21.07.43.26l2,1.71c.21.18.26.24.32.38.08.18.03.42-.1.58-.14.17-.37.25-.56.2-.15-.04-.21-.07-.43-.26l-2-1.71Z"/>
    <path class="cls-1" d="M152.07,115.17c.21.16.28.49.14.68-.08.1-.08.11-.43.3-.17.09-.3.19-.37.29-.12.16-.12.3-.02.38.12.09.19.06.7-.25.48-.29.66-.37.96-.41.27-.03.54.04.77.21.63.47.68,1.31.12,2.05-.49.65-1.24.97-1.6.7-.22-.17-.28-.52-.13-.71q.08-.11.54-.37c.19-.1.31-.2.39-.3.12-.16.11-.35-.01-.44-.11-.08-.22-.05-.55.16-.53.34-.69.42-.93.49-.33.1-.62.04-.93-.19-.59-.44-.63-1.3-.11-2,.43-.57,1.11-.85,1.46-.59"/>
    <path class="cls-1" d="M155.64,114.5c.24.15.3.2.37.34.1.17.09.41-.02.59-.12.18-.34.3-.53.27-.15-.01-.21-.04-.46-.2l-1.93-1.24c-.16.27-.31.39-.46.41-.14.01-.27-.01-.38-.08-.23-.15-.31-.41-.19-.67q.03-.08.14-.24l-.52-.33c-.24-.15-.3-.2-.36-.33-.1-.17-.09-.41.03-.6.11-.18.33-.29.52-.27.16.01.22.04.46.2l.52.33.12-.18c.14-.22.19-.27.31-.34.15-.09.37-.08.54.03.16.1.26.3.24.47-.01.14-.04.19-.18.42l-.12.18,1.93,1.24Z"/>
    <path class="cls-1" d="M156.24,111.67c.5.07.84-.09,1.06-.51.13-.25.15-.32.17-1.02,0-.08.03-.18.07-.26.11-.21.43-.31.65-.19.43.23.42,1.2,0,2.01-.6,1.12-1.77,1.51-2.84.94-1.11-.59-1.53-1.8-.98-2.83.52-.98,1.72-1.32,2.74-.78.29.16.34.36.17.68l-1.04,1.96ZM156.25,109.91c-.23-.06-.33-.07-.47-.05-.24.03-.44.18-.56.39-.19.35-.11.68.27,1.08l.75-1.42Z"/>
    <path class="cls-1" d="M156.24,107.62c-.38-.16-.53-.48-.39-.82.1-.25.31-.37.62-.38-.17-.44-.2-.67-.09-.93.13-.31.49-.45.8-.32.26.11.32.27.26.77-.05.68.04.92.41,1.06l1.38.59c.26.11.32.15.42.27.13.15.16.39.08.59-.09.2-.28.35-.48.36-.15.01-.22,0-.49-.12l-2.52-1.07Z"/>
    <path class="cls-1" d="M115.34,147.32c-7.99,0-15.73-1.56-23.03-4.65-7.04-2.98-13.37-7.25-18.8-12.68-5.43-5.43-9.7-11.76-12.68-18.8-3.08-7.3-4.65-15.04-4.65-23.03s1.56-15.73,4.65-23.03c2.98-7.04,7.25-13.37,12.68-18.8,5.43-5.43,11.76-9.7,18.8-12.68,7.29-3.08,15.04-4.65,23.03-4.65s15.73,1.56,23.03,4.65c7.04,2.98,13.37,7.25,18.8,12.68,5.43,5.43,9.7,11.76,12.68,18.8,3.08,7.3,4.65,15.04,4.65,23.03s-1.56,15.73-4.65,23.03c-2.98,7.04-7.25,13.37-12.68,18.8-5.43,5.43-11.76,9.7-18.8,12.68-7.3,3.08-15.04,4.65-23.03,4.65M115.34,30.2c-7.83,0-15.41,1.53-22.56,4.55-6.9,2.92-13.1,7.1-18.42,12.42-5.32,5.32-9.5,11.52-12.42,18.42-3.02,7.15-4.55,14.74-4.55,22.56s1.53,15.41,4.55,22.56c2.92,6.9,7.1,13.1,12.42,18.42,5.32,5.32,11.52,9.5,18.42,12.42,7.15,3.02,14.74,4.55,22.56,4.55s15.41-1.53,22.56-4.55c6.9-2.92,13.1-7.1,18.42-12.42,5.32-5.32,9.5-11.52,12.42-18.42,3.02-7.15,4.55-14.74,4.55-22.56s-1.53-15.41-4.55-22.56c-2.92-6.9-7.1-13.1-12.42-18.42-5.32-5.32-11.52-9.5-18.42-12.42-7.15-3.02-14.74-4.55-22.56-4.55"/>
    <path class="cls-1" d="M71.6,96.75c0,.81-.65,1.46-1.46,1.46s-1.46-.65-1.46-1.46.65-1.46,1.46-1.46,1.46.65,1.46,1.46"/>
    <path class="cls-1" d="M162.55,96.75c0,.81-.65,1.46-1.46,1.46s-1.46-.65-1.46-1.46.65-1.46,1.46-1.46,1.46.65,1.46,1.46"/>
  </g>
</svg>