<?xml version="1.0" encoding="UTF-8"?>
<svg id="Layer_1" data-name="Layer 1" xmlns="http://www.w3.org/2000/svg" xmlns:xlink="http://www.w3.org/1999/xlink" viewBox="0 0 213 187">
  <defs>
    <style>
      .cls-1 {
        fill: #c41230;
      }

      .cls-1, .cls-2, .cls-3 {
        stroke-width: 0px;
      }

      .cls-2, .cls-4 {
        fill: none;
      }

      .cls-5 {
        clip-path: url(#clippath-1);
      }

      .cls-4 {
        stroke: #fff;
        stroke-width: 1.44px;
      }

      .cls-6 {
        clip-path: url(#clippath);
      }

      .cls-3 {
        fill: #fff;
      }
    </style>
    <clipPath id="clippath">
      <rect class="cls-2" x="64.21" y="15.63" width="84.37" height="146.36" transform="translate(5.25 183.56) rotate(-82.98)"/>
    </clipPath>
    <clipPath id="clippath-1">
      <rect class="cls-2" x="64.21" y="15.63" width="84.37" height="146.36" transform="translate(5.25 183.56) rotate(-82.98)"/>
    </clipPath>
  </defs>
  <g class="cls-6">
    <path class="cls-1" d="M48.1,54.2s-11.97,0-11.97,11.97l.02,45.32s0,11.97,11.97,11.96l116.57-.04s11.97,0,11.97-11.97l-.02-45.32s0-11.97-11.97-11.97l-116.58.04Z"/>
    <path class="cls-4" d="M47.88,53.94s-12.01,0-12.01,12.06l.02,45.66s0,12.06,12.02,12.05l117.01-.04s12.01,0,12.01-12.06l-.02-45.66s0-12.06-12.02-12.06l-117.01.04Z"/>
    <path class="cls-3" d="M61.87,78.51c-.49.89-1.46,1.36-2.84,1.36-2.33,0-3.35-1.52-3.35-2.51v-.04s10.04,0,10.04,0v-.31c0-3.93-2.18-6.2-6.69-6.2-4.12,0-6.89,1.68-6.88,5.6,0,3.93,2.76,5.6,6.89,5.6,3.13,0,5.5-1.03,6.5-3.5h-3.66ZM55.68,75.31v-.04c0-.25.56-2.31,3.27-2.31,2.51,0,3.23,1.75,3.23,2.31v.04s-6.5,0-6.5,0ZM83.69,81.62h3.42s0-7.06,0-7.06c0-2.74-2.04-3.64-4.14-3.64-1.91,0-3.35.72-4.3,1.97-.53-1.19-1.62-1.96-3.6-1.96-2,0-3.64.92-4.26,1.79h-.04v-1.52s-3.31,0-3.31,0v10.43s3.43,0,3.43,0v-5.64c0-1.63,1.16-2.41,2.62-2.41.95,0,2.06.39,2.06,1.79v6.26s3.43,0,3.43,0v-5.64c0-1.63,1.16-2.41,2.58-2.41.99,0,2.1.39,2.1,1.79v6.27ZM92.76,76.46c0-1.98,1.5-3.01,3.21-3.02,1.73,0,3.23,1.03,3.23,3.01,0,1.98-1.5,3.02-3.23,3.02-1.71,0-3.21-1.03-3.21-3.01M89.45,85.49h3.42s0-5.04,0-5.04h.04c.66.93,2.08,1.56,4.01,1.56,3.29,0,5.82-2.22,5.82-5.6,0-3.66-2.67-5.48-6.05-5.48-1.44,0-2.59.29-3.89,1.69h-.04s0-1.42,0-1.42h-3.31s0,14.3,0,14.3ZM104.59,81.61h3.42s0-14.12,0-14.12h-3.42s0,14.12,0,14.12ZM109.86,76.39c0,3.93,2.77,5.6,6.89,5.6,4.12,0,6.89-1.68,6.88-5.6,0-3.93-2.76-5.6-6.89-5.6-4.13,0-6.89,1.68-6.89,5.6M113.4,76.39c0-2.04,1.22-3.19,3.34-3.19,2.12,0,3.35,1.15,3.35,3.19,0,2.04-1.22,3.19-3.34,3.19-2.12,0-3.35-1.15-3.35-3.19M133.57,71.17l-2.88,6.89-2.98-6.89h-3.72s4.91,10.06,4.91,10.06l-.35.76c-.39.72-.78,1.07-1.61,1.07-.49,0-.99-.04-1.48-.08v2.41c.8.04,1.62.08,2.41.08,1.91,0,2.84-.41,3.66-2.16l5.7-12.14h-3.66ZM147.23,78.48c-.49.89-1.46,1.36-2.84,1.36-2.33,0-3.35-1.52-3.35-2.51v-.04s10.04,0,10.04,0v-.31c0-3.93-2.18-6.2-6.69-6.2-4.13,0-6.89,1.68-6.88,5.6,0,3.93,2.76,5.6,6.89,5.6,3.13,0,5.5-1.03,6.5-3.5h-3.66ZM141.04,75.28v-.04c0-.25.56-2.32,3.27-2.32,2.51,0,3.23,1.75,3.23,2.31v.04s-6.5,0-6.5,0ZM152.83,81.59h3.42s0-4.49,0-4.49c0-2.02,1.11-3.21,3.44-3.21.64,0,1.26.14,1.89.31v-3.21c-.39-.08-.86-.1-1.25-.1-1.94,0-2.92.72-4.16,2.32h-.04s0-2.04,0-2.04h-3.31s0,10.43,0,10.43Z"/>
    <path class="cls-3" d="M58.27,105.67c2.13,0,3.36-1.15,3.36-3.21,0-2.05-1.23-3.21-3.36-3.21-2.13,0-3.36,1.15-3.36,3.21,0,2.05,1.23,3.21,3.36,3.21M58.27,96.83c4.15,0,6.92,1.68,6.92,5.63,0,3.95-2.78,5.63-6.92,5.63-4.15,0-6.92-1.68-6.92-5.64,0-3.95,2.78-5.63,6.92-5.63"/>
    <path class="cls-3" d="M68.16,99.53h-2.17s0-2.31,0-2.31h2.17s0-.53,0-.53c0-2.82.86-3.34,4.07-3.34.47,0,1.33.02,2.17.04v2.15c-.59-.02-1.15-.04-1.74-.04-.61,0-1.06.1-1.06,1.08v.65s2.76,0,2.76,0v2.31s-2.76,0-2.76,0v8.17s-3.44,0-3.44,0v-8.17Z"/>
    <path class="cls-3" d="M91.9,101.1c-.41-1.39-1.47-1.84-2.85-1.84-2.13,0-3.36,1.15-3.37,3.21,0,2.05,1.23,3.21,3.36,3.21,1.53,0,2.68-.82,2.86-2.13h3.56c-.63,3.71-3.29,4.56-6.71,4.56-3.95,0-6.63-1.68-6.63-5.63,0-3.95,2.78-5.63,6.92-5.63,2.66,0,5.77.8,6.41,4.26h-3.56Z"/>
    <path class="cls-3" d="M97.11,93.52h3.44s0,5.24,0,5.24h.04c.51-.88,2.15-1.8,4.17-1.8,1.78,0,4.5.69,4.5,3.78v6.98h-3.44v-5.95c0-1.45-.76-2.15-2.3-2.15-1.6,0-2.95.8-2.95,3.03v5.06h-3.44v-14.2Z"/>
    <path class="cls-3" d="M118.03,105.69c2.13,0,3.36-1.15,3.37-3.2,0-2.05-1.23-3.21-3.36-3.21-2.13,0-3.36,1.15-3.36,3.21,0,2.05,1.23,3.21,3.36,3.21M118.03,96.85c4.15,0,6.92,1.68,6.92,5.63,0,3.95-2.78,5.63-6.92,5.63-4.15,0-6.92-1.68-6.92-5.63,0-3.95,2.78-5.63,6.92-5.63"/>
  </g>
  <path class="cls-3" d="M126.81,97.24h3.44s0,10.48,0,10.48h-3.44s0-10.48,0-10.48ZM126.81,93.53h3.44s0,2.43,0,2.43h-3.44s0-2.43,0-2.43Z"/>
  <g class="cls-5">
    <path class="cls-3" d="M141.89,101.12c-.41-1.39-1.47-1.84-2.85-1.84-2.13,0-3.36,1.15-3.36,3.21,0,2.05,1.23,3.21,3.36,3.21,1.53,0,2.68-.82,2.86-2.13h3.56c-.63,3.71-3.29,4.56-6.71,4.56-3.95,0-6.63-1.68-6.63-5.63,0-3.95,2.78-5.63,6.92-5.63,2.66,0,5.77.8,6.41,4.26h-3.56Z"/>
    <path class="cls-3" d="M156.59,101.38v-.04c0-.57-.72-2.33-3.25-2.33-2.72,0-3.29,2.07-3.29,2.33v.04s6.53,0,6.53,0ZM159.95,104.6c-1,2.48-3.38,3.52-6.53,3.52-4.15,0-6.92-1.68-6.92-5.64,0-3.95,2.78-5.63,6.92-5.63,4.54,0,6.73,2.29,6.73,6.24v.31s-10.09,0-10.09,0v.04c0,1,1.02,2.52,3.36,2.52,1.39,0,2.37-.47,2.86-1.37h3.68Z"/>
  </g>
</svg>