<?xml version="1.0" encoding="UTF-8"?>
<svg id="Layer_1" data-name="Layer 1" xmlns="http://www.w3.org/2000/svg" viewBox="0 0 213 187">
  <defs>
    <style>
      .cls-1 {
        fill: #0081a9;
      }

      .cls-1, .cls-2 {
        stroke-width: 0px;
      }

      .cls-2 {
        fill: #fcfafb;
      }
    </style>
  </defs>
  <circle class="cls-2" cx="104.87" cy="90.78" r="53.59"/>
  <g>
    <path class="cls-1" d="M102.7,77.02c-.07-.3-.19-.56-.34-.79-.15-.23-.35-.41-.58-.54-.23-.13-.51-.19-.83-.19-.56,0-1.03.21-1.4.62-.37.41-.59,1.03-.67,1.86h3.95c-.02-.34-.06-.66-.13-.96Z"/>
    <path class="cls-1" d="M103.89,108.41c-1.55,0-2.69.59-3.44,1.77-.75,1.18-1.12,2.9-1.12,5.14,0,1.26.13,2.31.4,3.12.27.82.61,1.46,1.03,1.94.39.45.87.77,1.43.95.56.18,1.14.27,1.73.27s1.19-.1,1.79-.3c.6-.2,1.06-.46,1.37-.8.22-.25.38-.55.46-.91.08-.35.13-.81.13-1.37v-7.88c-1.07-1.29-2.33-1.94-3.8-1.94Z"/>
    <path class="cls-1" d="M106.27,35.94c-30.67-.14-55.21,24.66-55.3,54.84-.09,30.41,24.46,55.02,54.67,55.22,30.42.2,55.36-24.37,55.4-55-.01-30.34-24.48-54.92-54.77-55.06ZM95.26,76.52c.28-.83.69-1.54,1.22-2.13.53-.59,1.18-1.06,1.94-1.39.76-.33,1.63-.49,2.59-.49s1.78.16,2.49.48c.71.32,1.31.77,1.8,1.35.48.58.84,1.27,1.08,2.06.24.8.36,1.66.36,2.59,0,.63-.04,1.02-.11,1.17-.07.15-.21.23-.42.23h-7.3c.13.76.43,1.31.9,1.68.47.36,1.1.54,1.87.54.58,0,1.14-.07,1.69-.2.55-.14,1.14-.34,1.78-.61.13-.06.26-.04.39.06.13.1.26.37.41.81l.19.58c.14.45.21.76.2.92,0,.16-.09.28-.25.36-.77.42-1.55.72-2.34.92-.79.19-1.62.29-2.51.29-.96,0-1.84-.14-2.64-.43-.8-.29-1.47-.71-2.02-1.27s-.98-1.23-1.29-2.04c-.31-.8-.46-1.72-.46-2.75s.14-1.88.42-2.71ZM71.77,68.46c.03-.08.11-.14.24-.19.13-.05.33-.08.59-.11.27-.02.62-.04,1.07-.04h.34c.4,0,.73,0,.99.02.26.02.46.05.6.1.14.05.25.11.31.18.06.07.11.16.14.25l1.54,7.11c.18.77.36,1.64.54,2.6.18.96.35,1.93.49,2.89.05-.37.12-.8.2-1.28.09-.48.18-.97.28-1.47.1-.5.19-.99.29-1.47.1-.48.18-.91.26-1.28l1.57-7.11c.02-.11.05-.2.11-.28.06-.07.15-.13.28-.17.13-.04.31-.07.55-.08.24-.02.57-.02.99-.02h.22c.4,0,.73.01.98.04.25.02.45.06.59.1.14.04.24.1.29.17s.09.16.12.25l1.61,7.13c.16.67.33,1.48.51,2.41.18.93.35,1.95.53,3.06.06-.4.14-.85.23-1.35.09-.5.18-1,.27-1.49.09-.5.17-.98.25-1.43.08-.46.16-.86.24-1.19l1.47-7.13c.02-.11.05-.2.11-.28.06-.07.16-.13.3-.17.14-.04.34-.07.59-.08.25-.02.58-.02,1-.02h.14c.45,0,.8.02,1.06.05.26.03.45.07.58.12.13.05.2.11.22.19.02.08.02.17,0,.26l-4.39,16.2c-.03.1-.08.18-.14.24-.06.06-.17.12-.31.16-.14.04-.35.07-.6.1-.26.02-.59.04-.99.04h-.29c-.42,0-.76,0-1.04-.02-.27-.02-.49-.04-.65-.08-.16-.04-.28-.1-.35-.17s-.12-.16-.13-.25l-1.23-4.99c-.23-.87-.43-1.86-.63-2.98-.19-1.12-.35-2.25-.48-3.41-.08.56-.17,1.14-.27,1.72-.1.59-.2,1.16-.3,1.72-.1.56-.21,1.1-.31,1.6-.1.51-.2.95-.3,1.34l-1.18,4.99c-.03.1-.08.18-.13.24-.06.06-.15.12-.29.16-.14.04-.33.07-.59.1-.26.02-.59.04-.99.04h-.48c-.42,0-.76,0-1.01-.02-.26-.02-.45-.04-.59-.08-.14-.04-.23-.09-.29-.16-.06-.06-.1-.15-.13-.27l-4.6-16.2c-.03-.11-.03-.21,0-.29ZM91.49,125.49c0,.11-.03.21-.08.3-.06.08-.18.15-.36.19-.18.04-.46.08-.82.11-.37.03-.86.04-1.48.04h-.21c-.67,0-1.2-.01-1.58-.04-.38-.03-.66-.06-.84-.11-.18-.04-.3-.11-.34-.19-.04-.08-.06-.18-.06-.3v-11.39c0-.73-.01-1.34-.04-1.83-.03-.49-.07-.91-.13-1.24-.06-.34-.14-.62-.25-.84-.11-.22-.25-.44-.42-.63-.28-.31-.67-.55-1.16-.72-.49-.17-1.05-.25-1.67-.25-.48,0-.97.06-1.48.17-.51.11-.96.28-1.35.51-.45.28-.75.6-.89.95-.14.35-.24.78-.3,1.29-.06.48-.08,1.08-.08,1.81v12.19c0,.11-.03.21-.08.3-.06.08-.18.15-.36.19-.18.04-.46.08-.82.11-.37.03-.86.04-1.48.04h-.21c-.67,0-1.2-.01-1.58-.04-.38-.03-.66-.06-.84-.11-.18-.04-.3-.11-.34-.19-.04-.08-.06-.18-.06-.3v-11.64c0-1.66-.03-3.32-.08-5-.06-1.67-.13-3.08-.21-4.24,0-.14.01-.26.04-.36.03-.1.13-.18.3-.23.17-.06.43-.1.78-.13.35-.03.82-.04,1.41-.04h.21c1.04,0,1.71.04,2.02.11.31.07.51.22.59.44.06.2.11.45.15.76.04.31.09.62.15.93.67-.79,1.54-1.43,2.59-1.92,1.05-.49,2.23-.74,3.52-.74s2.43.2,3.42.59c.98.39,1.8.96,2.45,1.69.7.79,1.21,1.72,1.52,2.78.31,1.07.46,2.4.46,4.01v12.99ZM115.23,123.84c0,.73-.03,1.22-.08,1.48-.06.25-.15.41-.3.46-.39.14-.86.26-1.39.36-.53.1-1.08.15-1.64.15-.93,0-1.7-.19-2.32-.57-.62-.38-1.07-.89-1.35-1.54-.73.76-1.6,1.34-2.59,1.75-1,.41-2.09.61-3.27.61-1.38,0-2.61-.26-3.71-.78-1.1-.52-2.03-1.27-2.8-2.23-.77-.97-1.36-2.14-1.77-3.52-.41-1.38-.61-2.94-.61-4.68,0-1.86.22-3.52.67-5,.45-1.48,1.08-2.73,1.9-3.75.82-1.03,1.79-1.81,2.93-2.34,1.14-.53,2.4-.8,3.77-.8,1.91,0,3.58.63,5.02,1.9v-10.63c0-.11.02-.21.06-.3.04-.08.15-.15.34-.19.18-.04.46-.08.84-.11.38-.03.91-.04,1.58-.04h.21c.62,0,1.11.01,1.48.04.36.03.64.06.82.11.18.04.3.11.36.19.06.08.08.18.08.3v25.76c0,.48.1.79.3.95.2.15.51.23.93.23.25,0,.41.1.46.3.06.2.08.67.08,1.43v.46ZM123.25,125.49c0,.11-.03.21-.08.3-.06.08-.18.15-.36.19-.18.04-.46.08-.82.11-.37.03-.86.04-1.48.04h-.21c-.67,0-1.2-.01-1.58-.04-.38-.03-.66-.06-.84-.11-.18-.04-.3-.11-.34-.19-.04-.08-.06-.18-.06-.3v-21c0-.11.02-.21.06-.3.04-.08.15-.15.34-.19.18-.04.46-.08.84-.11.38-.03.91-.04,1.58-.04h.21c.62,0,1.11.01,1.48.04.36.03.64.06.82.11.18.04.3.11.36.19.06.08.08.18.08.3v21ZM123.05,100.4c-.72.74-1.61,1.11-2.69,1.11s-1.97-.37-2.69-1.11c-.72-.74-1.08-1.6-1.08-2.6s.36-1.86,1.08-2.59c.72-.74,1.61-1.11,2.69-1.11s1.97.37,2.69,1.11c.72.74,1.08,1.6,1.08,2.59s-.36,1.86-1.08,2.6ZM141.44,121.92c-.38.89-.91,1.65-1.58,2.3-1.6,1.55-3.92,2.32-6.96,2.32-1.63,0-3.13-.24-4.49-.72-1.36-.48-2.48-1.08-3.35-1.81-.17-.14-.23-.34-.19-.59.04-.25.23-.69.57-1.31l.42-.76c.36-.65.66-1.07.89-1.26.22-.2.45-.21.67-.04.82.56,1.69,1.01,2.64,1.33.94.32,1.86.48,2.76.48,1.12,0,2-.19,2.61-.57.62-.38.93-.85.93-1.41,0-.53-.27-.96-.8-1.27-.53-.31-1.2-.58-2-.82-.8-.24-1.67-.5-2.59-.78-.93-.28-1.79-.67-2.59-1.18-.8-.51-1.47-1.17-2-2-.53-.83-.8-1.92-.8-3.27,0-1.1.22-2.09.67-2.97.45-.89,1.06-1.64,1.83-2.26.77-.62,1.69-1.09,2.76-1.41,1.07-.32,2.22-.48,3.46-.48,1.41,0,2.69.18,3.86.55,1.17.37,2.2.89,3.1,1.56.22.14.3.34.23.59-.07.25-.32.75-.74,1.48l-.38.59c-.39.65-.69,1.05-.89,1.2-.2.15-.41.16-.63.02-.67-.42-1.36-.75-2.05-.99-.69-.24-1.44-.36-2.26-.36-1.26,0-2.18.24-2.74.72-.39.34-.59.75-.59,1.22,0,.53.27.95.8,1.24.53.3,1.2.57,2,.82.8.25,1.67.53,2.59.82.93.3,1.79.69,2.59,1.18.8.49,1.47,1.14,2,1.94.53.8.8,1.83.8,3.1,0,.98-.19,1.92-.57,2.8ZM141.49,68c-.6,1.9-1.55,3.61-2.7,5.22-1.53,2.12-3.34,3.97-5.3,5.69-2.82,2.47-5.89,4.59-9.07,6.57-.33.2-.54.21-.88,0-2.73-1.7-5.39-3.51-7.88-5.55-2.2-1.8-4.25-3.76-5.99-6.02-1.29-1.67-2.36-3.45-3.07-5.45-.58-1.65-.85-3.34-.72-5.09.14-1.88.73-3.62,1.7-5.23.71-1.17,1.58-2.21,2.58-3.15.47-.44,1.01-.77,1.59-1.05,1.42-.67,2.92-1.04,4.5-.96,1.58.07,3.04.56,4.39,1.36,1.17.68,2.19,1.54,3.1,2.54.06.07.13.14.19.21.01.01.04.02.07.04.35-.37.69-.75,1.07-1.1,1.26-1.15,2.66-2.08,4.29-2.61,2.37-.77,4.66-.51,6.9.53.96.45,1.7,1.13,2.4,1.89,1.42,1.55,2.48,3.32,3.03,5.36.62,2.29.51,4.56-.2,6.81Z"/>
  </g>
</svg>