<?xml version="1.0" encoding="UTF-8"?>
<svg id="Layer_1" data-name="Layer 1" xmlns="http://www.w3.org/2000/svg" viewBox="0 0 213 187">
  <defs>
    <style>
      .cls-1 {
        fill: #0081aa;
        stroke-width: 0px;
      }
    </style>
  </defs>
  <path class="cls-1" d="M20.26,76.01l-3.61,7.38-8.16,1.17c-1.44.22-2,2-.94,3.05l5.83,5.72-1.39,8.05c-.22,1.44,1.33,2.55,2.61,1.89l7.27-3.83,7.22,3.83c1.28.67,2.83-.44,2.61-1.89l-1.39-8.05,5.83-5.72c1.05-1.05.5-2.83-.94-3.05l-8.1-1.17-3.66-7.38c-.61-1.28-2.5-1.33-3.16,0Z"/>
  <path class="cls-1" d="M62.06,76.01l-3.61,7.38-8.16,1.17c-1.44.22-2,2-.94,3.05l5.83,5.72-1.39,8.05c-.22,1.44,1.33,2.55,2.61,1.89l7.27-3.83,7.22,3.83c1.28.67,2.83-.44,2.61-1.89l-1.39-8.05,5.83-5.72c1.05-1.05.5-2.83-.94-3.05l-8.1-1.17-3.66-7.38c-.61-1.28-2.5-1.33-3.16,0Z"/>
  <path class="cls-1" d="M103.86,76.01l-3.61,7.38-8.16,1.17c-1.44.22-2,2-.94,3.05l5.83,5.72-1.39,8.05c-.22,1.44,1.33,2.55,2.61,1.89l7.27-3.83,7.22,3.83c1.28.67,2.83-.44,2.61-1.89l-1.39-8.05,5.83-5.72c1.05-1.05.5-2.83-.94-3.05l-8.1-1.17-3.66-7.38c-.61-1.28-2.5-1.33-3.16,0Z"/>
  <path class="cls-1" d="M145.65,76.01l-3.61,7.38-8.16,1.17c-1.44.22-2,2-.94,3.05l5.83,5.72-1.39,8.05c-.22,1.44,1.33,2.55,2.61,1.89l7.27-3.83,7.22,3.83c1.28.67,2.83-.44,2.61-1.89l-1.39-8.05,5.83-5.72c1.05-1.05.5-2.83-.94-3.05l-8.1-1.17-3.66-7.38c-.61-1.28-2.5-1.33-3.16,0Z"/>
  <path class="cls-1" d="M187.45,76.01l-3.61,7.38-8.16,1.17c-1.44.22-2,2-.94,3.05l5.83,5.72-1.39,8.05c-.22,1.44,1.33,2.55,2.61,1.89l7.27-3.83,7.22,3.83c1.28.67,2.83-.44,2.61-1.89l-1.39-8.05,5.83-5.72c1.05-1.05.5-2.83-.94-3.05l-8.1-1.17-3.66-7.38c-.61-1.28-2.5-1.33-3.16,0Z"/>
</svg>